<?xml version="1.0" encoding="utf-8"?>
<!-- Generator: Adobe Illustrator 23.0.3, SVG Export Plug-In . SVG Version: 6.00 Build 0)  -->
<svg version="1.1" id="Layer_1" xmlns="http://www.w3.org/2000/svg" xmlns:xlink="http://www.w3.org/1999/xlink" x="0px" y="0px"
	 viewBox="0 0 92 76" style="enable-background:new 0 0 92 76;" xml:space="preserve">
<style type="text/css">
	.st0{fill:#FFFFFF;}
</style>
<g>
	<path class="st0" d="M82.3,16.5v-2c0-8-6.5-14.5-14.5-14.5H24.4c-8,0-14.5,6.5-14.5,14.5v2c-5.5,0-9.9,4.4-9.9,9.9v14.9
		c0,5.5,4.5,9.9,9.9,9.9h4.9v5.6c0,4.6,3.7,8.3,8.2,8.3h5.3c0.2,0,0.3,0.1,0.3,0.3V74c0,1.8,2.2,2.6,3.4,1.4l10.2-10.2
		c0-0.1,0.1-0.1,0.2-0.1H69c4.5,0,8.2-3.7,8.2-8.3v-5.6h4.9c5.5,0,9.9-4.4,9.9-9.9V26.4C92,20.9,87.6,16.5,82.3,16.5z M9.9,23.1
		c-1.9,0-3.3,1.5-3.3,3.3H6.5v14.9c0,1-0.7,1.7-1.6,1.7c-0.9,0-1.6-0.8-1.6-1.7V26.4c0-3.6,3-6.6,6.6-6.6V23.1z M19.7,14.5
		c0-2.6,2.1-4.6,4.6-4.6h43.4c2.5,0,4.6,2.1,4.6,4.6v2H19.7V14.5z M72.3,56.9c0,1.8-1.5,3.3-3.3,3.3H40.9c-0.5,0-0.9,0.2-1.2,0.5
		l-6.2,6.2v-5.1c0-1-0.7-1.7-1.6-1.7H23c-1.8,0-3.3-1.5-3.3-3.3v-5.6h21.4c1.1,0,2.2-0.8,2.5-1.9l2.4-7.7l2.4,7.8
		c0.3,1.1,1.3,1.9,2.5,1.9h21.4V56.9z M77.2,41.2c0,2.8-2.2,5-4.9,5H52.4c-0.3,0-0.5-0.2-0.6-0.5l-3.3-10.5c-0.8-2.5-4.2-2.5-5,0
		l-3.3,10.5c-0.1,0.3-0.3,0.5-0.6,0.5H19.7c-2.7,0-4.9-2.3-4.9-5V21.4h62.4V41.2z M88.7,41.3c0,0.9-0.7,1.7-1.6,1.7
		c-0.9,0-1.6-0.7-1.6-1.7V26.4h-0.1c0-1.8-1.5-3.3-3.3-3.3v-3.3c3.6,0,6.6,3,6.6,6.6V41.3z"/>
	<path class="st0" d="M29.6,43c3.7,0,6.6-3,6.6-6.6v-5c0-3.6-3-6.6-6.6-6.6c-3.7,0-6.6,3-6.6,6.6v5C23,40,26,43,29.6,43z M28.9,27.4
		c1.8,0,3.3,1.5,3.3,3.3c0,1.8-1.5,3.3-3.3,3.3c-1.8,0-3.3-1.5-3.3-3.3C25.6,28.9,27.1,27.4,28.9,27.4z"/>
	<path class="st0" d="M62.5,43c3.7,0,6.6-3,6.6-6.6v-5c0-3.6-3-6.6-6.6-6.6c-3.7,0-6.6,3-6.6,6.6v5C55.9,40,58.9,43,62.5,43z
		 M61.8,27.4c1.8,0,3.3,1.5,3.3,3.3c0,1.8-1.5,3.3-3.3,3.3s-3.3-1.5-3.3-3.3C58.5,28.9,60,27.4,61.8,27.4z"/>
</g>
</svg>
